<?xml version="1.0" encoding="UTF-8"?><svg xmlns="http://www.w3.org/2000/svg" xmlns:xlink="http://www.w3.org/1999/xlink" height="356.0" preserveAspectRatio="xMidYMid meet" version="1.0" viewBox="-0.8 -0.7 501.2 356.0" width="501.2" zoomAndPan="magnify"><g id="change1_1"><path clip-rule="evenodd" d="M471.5,36.9c-24.8-5.8-51-3.2-75.9,2.8c-53.3,12.9-82.9,42.9-106.1,79.6 c-22.5,35.4-38.8,77.2-65.9,115c-23.7,33-79.6,86.6-131.2,103c-19.6,6.2-38.5,7.1-54.6-1.4c-10.7-5.6-20-15.4-27.4-30.1 C9,303.1,5.7,302,3,303.3c-2.7,1.4-3.8,4.6-2.4,7.3c8.7,17.1,19.7,28.3,32.1,34.9c18.5,9.8,40.4,9.3,63,2.1 c53.8-17.1,112.1-72.7,136.8-107.1c27.2-38,43.7-79.9,66.3-115.5c21.8-34.4,49.5-62.7,99.5-74.8c26.4-6.4,54.3-9,80.1-0.1 c-0.2,0.1-0.5,0.1-0.7,0.2c-18.5,5-38.6,12.4-54.8,22.7c-2.5,1.6-3.3,5-1.7,7.5c1.6,2.5,5,3.3,7.5,1.7c15.3-9.7,34.4-16.6,51.8-21.4 c3.6-1,7.2-1.9,10.8-2.8c0.5,0,2.4,0.1,3.1,0c1.3-0.2,2.3-0.6,3-1.1c1.8-1.3,3-3.1,2.5-6c-0.4-2.5-1.9-5.2-4.1-7.8 c-3.6-4.1-9.4-8.1-12.3-10.6C468.8,20.1,453,8.3,435.2,0.5c-2.8-1.2-6,0-7.2,2.8c-1.2,2.8,0,6,2.8,7.2C445.6,17,459,26.5,471.5,36.9 L471.5,36.9z" fill="inherit" fill-rule="evenodd"/></g></svg>