<?xml version="1.0" encoding="UTF-8" standalone="no"?><svg xmlns="http://www.w3.org/2000/svg" xmlns:xlink="http://www.w3.org/1999/xlink" fill="#000000" height="69.7" preserveAspectRatio="xMidYMid meet" version="1" viewBox="15.2 12.4 67.7 69.7" width="67.7" zoomAndPan="magnify"><g id="change1_1"><path d="M27.9,20c4.4-4.9,11.1-7.6,17.7-7.1c6.6,0.6,12.8,4.4,16.2,10c2.9,4.7,4,10.6,8,14.5 c2.5,2.4,5.9,3.7,8.3,6.3c3,3.2,3.8,8.1,2.6,12.4c-1.2,4.2-4.3,7.8-8.1,10.1c-3.7,2.3-8.1,3.6-12.4,4.2c-5.6,0.8-11.5,0.7-16.5-1.9 c-5.2-2.7-8.7-7.7-11.5-12.8c-2-3.6-3.7-7.3-5.8-10.8c-1.3-2.1-2.9-4.2-3.6-6.6C21.2,32.1,23.9,24.5,27.9,20z M74.1,33.9 c0.8,0.5,1.8,0.7,2.6,0.2c0.8-0.6,0.8-1.7,0.6-2.6c-0.5-1.9-1.7-3.6-3.4-4.6c-1.9-1.1-3.1,0.3-2.8,2.1C71.3,31,72.3,32.8,74.1,33.9z M19.3,76c0.8,0.4,1.8,0.7,2.5,0.2c0.8-0.5,0.8-1.7,0.6-2.6c-0.5-1.9-1.7-3.6-3.4-4.5c-1.9-1.1-3,0.3-2.8,2.1 C16.5,73.1,17.5,75,19.3,76z" fill="#04d6ff"/></g><g id="change2_1"><path d="M56.8,79.8c-13.2,0-26.5-6.6-33.8-17.7c-0.2-0.2-0.1-0.5,0.1-0.7c0.2-0.2,0.5-0.1,0.7,0.1 c9.2,13.9,28,20.6,43.9,15.6c4.9-1.5,8.5-3.9,10.8-6.9c2.7-3.6,3.3-8.5,1.4-11.9c-2-3.5-5.9-5-10-6.6c-2.6-1-5.3-2-7.6-3.6 c-3.6-2.6-5.8-6.5-7.9-10.2c-1.7-3-3.4-6.1-5.9-8.5c-6.1-6-16.8-6.5-23.5-1.3c-6.7,5.3-8.6,15.9-4.2,23.2c0.1,0.2,0.1,0.5-0.2,0.7 c-0.2,0.1-0.5,0.1-0.7-0.2C15.2,44,17.2,33,24.3,27.4c7.2-5.7,18.3-5.1,24.8,1.3c2.5,2.5,4.3,5.7,6.1,8.7c2.2,3.8,4.2,7.5,7.6,9.9 c2.2,1.5,4.8,2.5,7.4,3.5c4.1,1.5,8.3,3.1,10.5,7c2.2,3.8,1.6,9-1.4,13c-2.4,3.2-6.2,5.6-11.3,7.2C64.4,79.2,60.6,79.8,56.8,79.8z M79.3,35.2c0.8-0.6,1.1-1.8,0.8-3.1c-0.5-2-1.9-3.9-3.7-4.9c-1.3-0.8-2.2-0.4-2.6-0.1c-0.7,0.5-1.1,1.6-0.9,2.7 c0.3,2.4,1.5,4.2,3.3,5.3l0,0c0.6,0.4,1.3,0.6,1.8,0.6C78.5,35.6,78.9,35.5,79.3,35.2z M76.7,34.2c-1.5-0.9-2.6-2.5-2.9-4.6 c-0.1-0.8,0.1-1.5,0.5-1.8c0.4-0.3,0.9-0.2,1.6,0.2c1.6,0.9,2.8,2.5,3.2,4.3c0.2,0.8,0.2,1.7-0.4,2.1C78.2,34.8,77.3,34.5,76.7,34.2 L76.7,34.2z M24.4,77.3c0.8-0.6,1.1-1.7,0.8-3.1c-0.5-2-1.8-3.8-3.6-4.9c-1.3-0.7-2.2-0.4-2.6-0.1c-0.7,0.5-1.1,1.5-0.9,2.7 c0.3,2.3,1.5,4.2,3.3,5.2l0,0c0.6,0.4,1.2,0.5,1.8,0.5C23.6,77.7,24,77.6,24.4,77.3z M21,70.2c1.6,0.9,2.7,2.5,3.2,4.2 c0.2,0.7,0.2,1.7-0.4,2.1c-0.5,0.4-1.4,0.1-2-0.2h0c-1.5-0.9-2.5-2.5-2.8-4.5c-0.1-0.8,0.1-1.4,0.5-1.7c0.1-0.1,0.3-0.2,0.5-0.2 C20.3,69.9,20.7,70,21,70.2z" fill="#ffffff"/></g></svg>