<?xml version="1.0" encoding="UTF-8" standalone="no"?><svg xmlns="http://www.w3.org/2000/svg" xmlns:xlink="http://www.w3.org/1999/xlink" fill="#04d6ff" height="367.3" preserveAspectRatio="xMidYMid meet" version="1" viewBox="79.1 71.5 367.3 367.3" width="367.3" zoomAndPan="magnify"><g id="change1_1"><circle cx="87.76" cy="80.14" r="8.64"/></g><g id="change1_2"><circle cx="137.76" cy="80.14" r="8.64"/></g><g id="change1_3"><circle cx="187.76" cy="80.14" r="8.64"/></g><g id="change1_4"><circle cx="237.76" cy="80.14" r="8.64"/></g><g id="change1_5"><circle cx="287.76" cy="80.14" r="8.64"/></g><g id="change1_6"><circle cx="87.76" cy="130.14" r="8.64"/></g><g id="change1_7"><circle cx="137.76" cy="130.14" r="8.64"/></g><g id="change1_8"><circle cx="187.76" cy="130.14" r="8.64"/></g><g id="change1_9"><circle cx="237.76" cy="130.14" r="8.64"/></g><g id="change1_10"><circle cx="287.76" cy="130.14" r="8.64"/></g><g id="change1_11"><circle cx="87.76" cy="180.14" r="8.64"/></g><g id="change1_12"><circle cx="137.76" cy="180.14" r="8.64"/></g><g id="change1_13"><circle cx="187.76" cy="180.14" r="8.64"/></g><g id="change1_14"><circle cx="237.76" cy="180.14" r="8.64"/></g><g id="change1_15"><circle cx="287.76" cy="180.14" r="8.64"/></g><g id="change1_16"><circle cx="87.76" cy="230.14" r="8.64"/></g><g id="change1_17"><circle cx="137.76" cy="230.14" r="8.64"/></g><g id="change1_18"><circle cx="187.76" cy="230.14" r="8.64"/></g><g id="change1_19"><circle cx="237.76" cy="230.14" r="8.64"/></g><g id="change1_20"><circle cx="287.76" cy="230.14" r="8.64"/></g><g id="change1_21"><circle cx="337.76" cy="230.14" r="8.64"/></g><g id="change1_22"><circle cx="387.76" cy="230.14" r="8.64"/></g><g id="change1_23"><circle cx="437.76" cy="230.14" r="8.64"/></g><g id="change1_24"><circle cx="87.76" cy="280.14" r="8.64"/></g><g id="change1_25"><circle cx="137.76" cy="280.14" r="8.64"/></g><g id="change1_26"><circle cx="187.76" cy="280.14" r="8.64"/></g><g id="change1_27"><circle cx="237.76" cy="280.14" r="8.64"/></g><g id="change1_28"><circle cx="287.76" cy="280.14" r="8.64"/></g><g id="change1_29"><circle cx="337.76" cy="280.14" r="8.64"/></g><g id="change1_30"><circle cx="387.76" cy="280.14" r="8.64"/></g><g id="change1_31"><circle cx="437.76" cy="280.14" r="8.64"/></g><g id="change1_32"><circle cx="237.76" cy="330.14" r="8.64"/></g><g id="change1_33"><circle cx="287.76" cy="330.14" r="8.64"/></g><g id="change1_34"><circle cx="337.76" cy="330.14" r="8.64"/></g><g id="change1_35"><circle cx="387.76" cy="330.14" r="8.64"/></g><g id="change1_36"><circle cx="437.76" cy="330.14" r="8.64"/></g><g id="change1_37"><circle cx="237.76" cy="380.14" r="8.64"/></g><g id="change1_38"><circle cx="287.76" cy="380.14" r="8.64"/></g><g id="change1_39"><circle cx="337.76" cy="380.14" r="8.64"/></g><g id="change1_40"><circle cx="387.76" cy="380.14" r="8.64"/></g><g id="change1_41"><circle cx="437.76" cy="380.14" r="8.64"/></g><g id="change1_42"><circle cx="237.76" cy="430.14" r="8.64"/></g><g id="change1_43"><circle cx="287.76" cy="430.14" r="8.64"/></g><g id="change1_44"><circle cx="337.76" cy="430.14" r="8.64"/></g><g id="change1_45"><circle cx="387.76" cy="430.14" r="8.64"/></g><g id="change1_46"><circle cx="437.76" cy="430.14" r="8.64"/></g></svg>