<?xml version="1.0" encoding="UTF-8" standalone="no"?><svg xmlns="http://www.w3.org/2000/svg" xmlns:xlink="http://www.w3.org/1999/xlink" fill="#000000" height="370.5" preserveAspectRatio="xMidYMid meet" version="1" viewBox="-0.8 -0.2 394.8 370.5" width="394.8" zoomAndPan="magnify"><g id="change1_1"><path d="M345.7,369.7c-14.3-0.4-28.7-1-43-1.2c-13.7-0.1-27.4,0.4-41.1,0.4c-8.8,0-17.6-0.8-26.5-0.2 c-12.2,0.7-24.5,0.7-36.7,0c-10.3-0.5-20.2-3.6-28.9-9c-13.3-8.4-25.2-18.7-35.4-30.6c-4.9-5.5-10.1-10.8-15.6-15.8 c-9.4-8.5-17.3-18.5-23.4-29.5c-4.9-8.8-9.9-17.6-15.3-26.1c-3.3-5.3-7.1-10.3-11.3-15c-10.1-11.2-18.6-23.8-25.3-37.3 c-5.4-11.1-12.4-21.5-20.7-30.6C13,165,8.4,153,6.1,140c-1.9-10.6-3.9-21.1-5.2-31.9c-1.7-13.8-1-27.7,2.3-41.2 c2.5-10,7.9-18.9,15.7-25.7C38.1,23.5,62,11.7,87.8,7.2c14.1-2.5,28.1-5,42.2-6.5c9.8-0.8,19.7-0.9,29.5-0.3 c12.6,0.4,25.4,1.3,37.3,5.9c13.4,5.1,26.5,10.8,39.6,16.7c3.6,1.8,7,4.2,9.9,7c5.8,5.1,11.5,10.4,17,15.9 c9.9,9.9,19.4,20.4,25.9,32.9c6.2,11.2,7.5,24.5,3.7,36.7c-1.1,3.6-1.1,7.4,0,11c1.6,6.2,2.3,12.6,2,19.1c0.1,5.9,1.1,11.7,2.8,17.3 c5.6,19.6,12.1,38.9,22.3,56.9c10.9,19.3,22.8,38,35,56.5c6.9,10.5,13.4,21.2,20.4,31.7c2.7,4.1,5.9,7.8,8.9,11.7 c3.9,5,6.4,10.9,7.4,17.1c2.3,13.2-5.6,26-18.3,30C364.3,369.2,355,370.3,345.7,369.7z M290.4,128.5c-1.8-4.1-2-8.7-0.7-12.9 c4.2-12.3,2.7-25.8-4.1-37c-4.6-7.8-10-15.1-16.2-21.7c-9-9.6-18.8-18.5-28.4-27.6c-1.5-1.3-3.2-2.5-5.1-3.3 c-13.9-7-28.3-12.9-43.1-17.7c-10.9-3.5-22.2-4.4-33.5-4.7c-9.6-0.6-19.3-0.5-29,0.2c-13.2,1.3-26.2,3.9-39.4,5.9 c-23.1,3.7-45.1,13.3-63.6,28C16.7,45.8,8.5,55.9,5.6,69.5c-2.2,10.5-3,21.3-2.3,32.1c0.8,14.4,3.9,28.5,6.8,42.7 c1.9,10.2,6.6,19.8,13.6,27.4c9,10,16.6,21.2,22.5,33.3c6.5,13.4,15,25.7,25.1,36.5c1.4,1.6,2.8,3.2,4.1,4.9 c7.8,10.4,14.6,21.4,20.5,33c5.6,10.7,12.8,20.5,21.4,28.9c8.3,8.2,16.3,16.6,24.5,25c9,9.4,19.2,17.7,30.3,24.6 c10.8,6.7,22.7,8.3,34.9,8.3c11.4,0,22.8-0.5,34.2-0.6c15.6,0,31.1,0.3,46.7,0.1c17.9-0.2,35.8,0,53.8,1.2 c9.8,0.7,19.7-0.2,29.3-2.6c14.8-3.7,19.1-17.4,17.5-27.9c-1-6.8-4.7-12.3-8.7-17.8c-6-8.2-11.8-16.4-17.4-24.8 c-7.7-11.7-15.3-23.4-22.7-35.3c-15.1-24.2-30.8-48.2-39-76c-3.2-10.9-6.2-21.7-9-32.6c-1.5-6.1-2.3-12.2-3.6-18.3 C287.7,129.5,288.4,128.8,290.4,128.5z M266.8,102.8c0,8.7-2.4,16.9-4.2,25.2c-6.7,31.1-8.4,62.5-1.7,93.7c2.3,10.7,6.1,21,14,29.2 c2,2.1,4.3,4,6.6,5.7c6.6,4.9,12.6,10.7,17.7,17.1c4.3,5.5,7.1,12.1,8.2,19.1c0.7,3.1,0.2,6.4-1.4,9.2c-1.5,3-3.4,5.7-5.6,8.3 c-16.3,18.2-37.3,31.4-60.8,38.2c-8.4,2.3-17.3,2.7-25.9,1c-10.1-1.8-20.4-2.9-29.7-7.4c-12.4-5.9-24.5-12.4-34.2-22.4 c-11.8-12.4-20.7-27.4-26-43.7c-7.4-21.6-15.2-43.1-22.9-64.6c-4.3-11-11.2-20.9-20.1-28.7c-8.7-8.2-16.8-16.8-25.1-25.3 c-5.7-5.8-11.6-11.5-17-17.6c-3.2-3.8-5.9-7.9-8.3-12.2c-2.9-4.7-3.3-10.5-1.1-15.5c1.3-3.2,2.4-6.4,4.1-9.4 C38.2,93.3,43,84,48.2,74.8c9.2-16.3,22.6-27.4,40.9-32.6c17.2-4.7,34.4-8.7,52.3-9.4c19.2-0.6,38.3,3.6,55.5,12.2 c14,6.8,27.9,14,41.8,21.1c6.4,3.2,12.3,7.3,17.5,12.2c1.4,1.3,3.3,2,4.6,3.5c1.6,1.4,2.9,3.2,3.6,5.2c1.3,5.1,2,10.3,3.1,15.5 L266.8,102.8z M143.8,35.7C125.1,36.1,106,40.2,87,46c-13.5,4-25.1,12.7-32.7,24.6c-8.2,12.8-15.4,26.3-21.5,40.2 c-2.9,6-2.2,13,1.7,18.3c4.3,6.6,9.3,12.8,15,18.3c6.7,6.6,13.4,13.3,20.1,20c4.1,4.1,7.9,8.5,12.2,12.2c10.2,8.7,18,20,22.6,32.6 c7.8,22,15.5,44.1,23.4,66c6.1,16.9,14.9,32.1,28.9,43.7c14.6,12.5,32.4,20.7,51.4,23.8c11.7,1.8,23.1,2.8,34.5-1.1 c17-5.6,32.7-14.7,46-26.8c4.7-4.4,9-9.1,13.1-14.1c2.3-2.6,3.4-6.1,3-9.5c-0.7-5.7-2.7-11.1-5.8-15.9c-5.1-7.4-11.5-13.8-18.8-19 c-7.1-5.1-12.7-12-16.3-20c-5.8-12.2-8-25.5-9.1-38.7c-2.2-25.3-0.3-50.7,5.6-75.4c2.2-8.8,4.4-17.6,3.5-26.7 c-0.7-6.5-1.1-13.4-8.4-16.6c-0.4-0.2-0.8-0.6-1.1-0.9c-5.1-4.9-10.8-8.9-17.1-12.1c-13.6-7-27.2-14-41-20.7 C179.9,40,162,35.7,143.8,35.7z M285.3,140.7c0.5,0,1-0.7,1.5-1.2c-0.5-0.5-0.9-1.3-1.4-1.5c-0.6-0.2-1,0.7-1.9,1.3 C284.2,139.9,284.8,140.7,285.3,140.7z M210.8,319.7c-14.4-0.9-27.6-4.1-38.3-13.7c-3.9-3.7-7.2-7.9-9.9-12.5 c-6.1-10.3-10.7-21.3-13.8-32.9c-5.3-18.5-12.6-36.5-21.7-53.5c-2-3.7-4.1-7.5-5.7-11.4c-5.2-12.8-13.6-23.4-22.8-33.6 c-6.3-7-12.2-14.4-17.9-21.9c-4.9-6.2-7.1-14-6.3-21.8c1-9.5,4.1-18.1,11.5-24.6c9.2-8.2,18.8-15.5,31-18.9c8.7-2.2,17.7-2.5,26.5-1 c14.8,2.2,29.2,6.6,42.8,13c5,2.3,10.2,4.1,15.2,6.6c6.2,3.1,12.2,6.7,18.3,10.2c1.5,0.9,3,2,4.5,2.9c1.6,0.8,3.8,0.8,2.4,3.6 c0,0.2,0.5,0.8,0.8,1.1c4.5,4.5,7.1,10.5,7.3,16.8c0.3,5.8,1.8,11.6,2.5,17.4c1,10.5,0.7,21-0.8,31.4c-0.9,7.8-2.4,15.4-3.2,23.2 c-0.4,4-0.5,8-0.2,11.9c0,1.8,0.5,3.6,1.4,5.1c8.2,10.8,11.5,23.7,16.4,35.8c2.5,6.1,4.7,12.3,6.4,18.7c2.8,10,0.4,20.7-6.5,28.5 c-10.5,12.8-24.6,18.3-40.2,19.5L210.8,319.7z M235,156.2c-0.1-2.4,0-5.4-0.5-8.4c-0.9-6.8-2.7-13.5-2.8-20.4 c0-8.6-5.6-14-10.7-18.8c-5.6-5.1-12.9-8.3-19.8-11.9c-5.2-2.7-10.9-4.7-16.3-7.1c-13.3-6.3-27.5-10.6-42.1-12.8 c-8-1.3-16.1-1.1-24,0.7C106.5,80.7,97,87.9,87.9,96.1c-6.7,6-9.5,13.8-10.5,22.4s2,15.6,7.1,22c5.8,7.4,11.8,14.5,18,21.5 c8.5,9.5,16.1,19.4,21.1,31.2c1.6,3.7,3.5,7.4,5.4,10.9c9.6,17.8,17.3,36.7,22.9,56.1c3,10.3,7,20.3,12.1,29.8 c5.8,11.5,16.2,20,28.7,23.4c19.2,5.8,36.5,2.8,51.7-10.7c11-9.8,14-21.7,8.9-35.6c-2.4-6.3-4.7-12.7-7.2-19 c-4-10.3-7.5-20.8-14.1-29.9c-1.2-1.8-1.8-3.9-1.8-6c-0.2-5.4,0-10.7,0.7-16.1c2.3-13.3,3.7-26.7,4.2-40.2L235,156.2z M217.8,183 c-0.9,8.2-1.8,16.5-2.7,25c-0.1,1.4-0.2,2.8-0.2,4.1c0,0.4,0,1.1,0.1,1.2c2.7,1.2,1.2,3.5,1.4,5.3c0.3,3.6,0.6,7.3,1.2,10.9 c1.2,5.9,1.3,12,0.3,18c-2.3,10.3-10.9,17.9-21.4,19c-13.2,1.2-25.4-7.5-28.5-20.4c-2.9-11.9-7.5-23.2-11.9-34.6 c-2.9-7.5-6.1-14.9-8.9-22.4c-4.9-13.8-13.6-26-25.1-35.1c-5.3-4.1-9.5-9.3-12.5-15.2c-3.8-7.9-2.7-14.6,3.6-20.7 c2-1.9,4.3-3.5,6.8-4.6c7.9-3.9,16.4-4.5,25-4.8c13.7-0.2,27.3,2.6,39.8,8.3c5.4,2.4,10,6.3,13.3,11.2c3.7,5.3,7.4,10.5,10.8,16 c4.5,7.1,6.2,15.2,7.5,23.3c0.8,5,1,10.1,1.5,15.6L217.8,183z M214.8,183c-0.5-5.4-0.8-10.3-1.5-15.1c-1.2-7.5-2.8-15-6.8-21.5 c-3.6-5.8-7.6-11.4-11.5-17c-3.2-4.6-7.7-8.1-12.8-10.2c-15.2-6.8-32-9.1-48.5-6.8c-5.6,0.5-11,2.3-15.8,5.4 c-7.8,5.6-9.6,12.2-5.3,20.4c0.8,1.7,1.8,3.3,3,4.7c3,3.5,6.3,6.8,9.7,9.9c9.7,7.8,17.2,17.9,22,29.4c2.2,5.5,4.1,11.1,6.5,16.6 c6.8,16.1,13.7,32.2,17.8,49.3c1.1,4.7,4.2,8.7,8.5,10.9c2.7,1.5,5.5,2.7,8.4,3.8c9.6,3.4,25.1-4.1,26.5-15.9 c0.6-5.7,0.5-11.4-0.4-17c-0.6-3.9-0.8-7.9-1.1-11.9c-0.1-1.6,0.8-3.4-1.2-4.4c-0.3-0.1-0.3-1-0.3-1.6c0-1.5,0-3.1,0.3-4.6 c0.9-8.4,1.9-16.7,2.7-24.5L214.8,183z" fill="#a7daf8"/></g></svg>