<?xml version="1.0" encoding="UTF-8" standalone="no"?><svg xmlns="http://www.w3.org/2000/svg" xmlns:xlink="http://www.w3.org/1999/xlink" fill="#000000" height="473" preserveAspectRatio="xMidYMid meet" version="1" viewBox="248.3 262.8 503.5 473.0" width="503.5" zoomAndPan="magnify"><g><g id="change1_2"><path d="M344.99,485.51c0.54-6.25,3.15-11.78,6.99-16.82c13.51-17.76,43.8-25.9,64.99-12.8 c12.48,7.72,22.49,17.65,30.82,29.4c6.92,9.76,13.17,20,19.9,30.31c4.7-6.67,9.44-13.52,14.3-20.29 c41.74-58.12,87.57-112.68,140.73-160.78c32.61-29.5,70.03-51.42,110.29-68.75c6.96-3,12.76-1.83,18.73,4.2 c-2.73,2.55-5.45,5.07-8.15,7.62c-35.16,33.2-69.56,67.17-100.79,104.11c-17.87,21.13-34.44,43.36-51.49,65.18 c-34.33,43.94-60.02,93.37-89.2,140.59c-11.26,18.23-22.42,36.53-33.7,54.75c-4.48,7.24-10.38,7.14-14.88-0.26 c-14.59-24.02-26.1-49.54-36.97-75.4c-9.08-21.59-19.28-42.65-32.23-62.27c-6.41-9.7-13.96-17.68-26.37-18.74 C353.77,485.21,349.51,485.51,344.99,485.51z" fill="#ffffff"/></g><g id="change1_1"><path d="M660.71,410.33l-34.2,34.2c9.88,21.81,15.36,46.02,15.36,71.52c0,96.03-77.83,173.86-173.86,173.86 s-173.86-77.83-173.86-173.86s77.83-173.86,173.86-173.86c24.01,0,46.86,4.87,67.65,13.66l34.45-34.45 c-30.5-16.04-65.25-25.11-102.1-25.11c-121.37,0-219.76,98.39-219.76,219.76S346.64,735.8,468.01,735.8s219.76-98.39,219.76-219.76 C687.77,477.73,677.96,441.69,660.71,410.33z" fill="#ffffff"/></g></g></svg>