<?xml version="1.0" encoding="iso-8859-1"?>
<!-- Generator: Adobe Illustrator 16.0.0, SVG Export Plug-In . SVG Version: 6.00 Build 0)  -->
<!DOCTYPE svg PUBLIC "-//W3C//DTD SVG 1.1//EN" "http://www.w3.org/Graphics/SVG/1.1/DTD/svg11.dtd">
<svg version="1.1" id="Layer_1" xmlns="http://www.w3.org/2000/svg" xmlns:xlink="http://www.w3.org/1999/xlink" x="0px" y="0px"
	 width="465.146px" height="465.146px" viewBox="0 0 465.146 465.146" style="enable-background:new 0 0 465.146 465.146;"
	 xml:space="preserve">
<g id="change1">
	<path style="fill-rule:evenodd;clip-rule:evenodd;fill:#F4BC33;" d="M232.57,0C104.125,0,0,104.127,0,232.572
		c0,128.445,104.125,232.574,232.57,232.574c128.45,0,232.576-104.129,232.576-232.574C465.146,104.127,361.021,0,232.57,0z
		 M232.836,38.396c33.673,0.083,61.097,27.777,61.083,61.695c-0.016,33.952-27.402,61.613-61.108,61.729
		c-34.106,0.116-61.943-28.017-61.579-62.235C171.591,65.561,199.023,38.317,232.836,38.396z M401.224,340.278
		c-10.948,9.367-17.285,8.685-26.712-2.572c-20.045-23.914-40.008-47.896-60.038-71.818c-1.912-2.287-4.079-4.372-7.927-8.452
		c0,6.097,0,9.539,0,12.981c0,39.888-0.329,79.783,0.195,119.671c0.165,12.778-3.307,22.564-14.729,28.887
		c-39.295,0-78.581,0-117.873,0c-11.635-5.385-15.842-14.443-15.692-27.207c0.48-40.57,0.176-81.155,0.176-121.733
		c0-3.06,0-6.127,0-11.751c-3.81,4.207-5.928,6.404-7.885,8.736c-19.633,23.465-39.217,46.967-58.865,70.417
		c-9.82,11.721-15.793,12.216-27.469,2.482c-2.227-1.853-4.48-3.675-6.644-5.609c-9.25-8.242-9.933-14.481-2.021-24.027
		c21.983-26.532,44.132-52.929,66.213-79.378c13.206-15.823,26.003-32.021,39.88-47.231c4.057-4.447,11.147-8.5,16.933-8.621
		c36.048-0.757,72.121-0.229,108.192-0.412c7.874-0.042,13.153,3.292,18.021,9.164c36.783,44.348,73.775,88.525,110.701,132.755
		c0,3.218,0,6.442,0,9.659C410.875,330.926,406.315,335.914,401.224,340.278z"/>
</g>
</svg>
